<svg xmlns="http://www.w3.org/2000/svg" width="251.7003173828125" height="255.2794189453125" viewBox="-29.520780563354492 -20.97671890258789 251.7003173828125 255.2794189453125"><title>Neo4j Graph Visualization</title><desc>Created using Neo4j (http://www.neo4j.com/)</desc><g class="layer relationships"><g class="relationship" transform="translate(149.55886406522538 205.3027054348894) rotate(234.16390695783116)"><path class="outline" fill="#A5ABB6" stroke="none" d="M 25 0.5 L 29.700375138404382 0.5 L 29.700375138404382 -0.5 L 25 -0.5 Z M 75.26287513840438 0.5 L 79.96325027680876 0.5 L 79.96325027680876 3.5 L 86.96325027680876 0 L 79.96325027680876 -3.5 L 79.96325027680876 -0.5 L 75.26287513840438 -0.5 Z"/><text text-anchor="middle" pointer-events="none" font-size="8px" fill="#000000" x="52.48162513840438" y="3" transform="rotate(180 52.48162513840438 0)" font-family="sans-serif">ACTED_IN</text></g><g class="relationship" transform="translate(193.17953084506965 90.17540591684721) rotate(527.4217527532862)"><path class="outline" fill="#A5ABB6" stroke="none" d="M 25 0.5 L 29.64686253773492 0.5 L 29.64686253773492 -0.5 L 25 -0.5 Z M 75.20936253773492 0.5 L 79.85622507546984 0.5 L 79.85622507546984 3.5 L 86.85622507546984 0 L 79.85622507546984 -3.5 L 79.85622507546984 -0.5 L 75.20936253773492 -0.5 Z"/><text text-anchor="middle" pointer-events="none" font-size="8px" fill="#000000" x="52.42811253773492" y="3" transform="rotate(180 52.42811253773492 0)" font-family="sans-serif">ACTED_IN</text></g><g class="relationship" transform="translate(118.09450097958941 8.023279730531966) rotate(467.74611405653616)"><path class="outline" fill="#A5ABB6" stroke="none" d="M 25 0.5 L 34.52965951404875 0.5 L 34.52965951404875 -0.5 L 25 -0.5 Z M 70.30309701404875 0.5 L 79.8327565280975 0.5 L 79.8327565280975 3.5 L 86.8327565280975 0 L 79.8327565280975 -3.5 L 79.8327565280975 -0.5 L 70.30309701404875 -0.5 Z"/><text text-anchor="middle" pointer-events="none" font-size="8px" fill="#000000" x="52.41637826404875" y="3" transform="rotate(180 52.41637826404875 0)" font-family="sans-serif">WROTE</text></g><g class="relationship" transform="translate(-0.5207809075649991 41.189953037474076) rotate(400.94784424584367)"><path class="outline" fill="#A5ABB6" stroke="none" d="M 25 0.5 L 29.01123889570306 0.5 L 29.01123889570306 -0.5 L 25 -0.5 Z M 75.90186389570306 0.5 L 79.91310279140612 0.5 L 79.91310279140612 3.5 L 86.91310279140612 0 L 79.91310279140612 -3.5 L 79.91310279140612 -0.5 L 75.90186389570306 -0.5 Z"/><text text-anchor="middle" pointer-events="none" font-size="8px" fill="#000000" x="52.45655139570306" y="3" font-family="sans-serif">DIRECTED</text></g><g class="relationship" transform="translate(3.240355271294234 188.51567915708588) rotate(317.51110302118343)"><path class="outline" fill="#A5ABB6" stroke="none" d="M 25 0.5 L 28.483227802086653 0.5 L 28.483227802086653 -0.5 L 25 -0.5 Z M 74.04572780208665 0.5 L 77.5289556041733 0.5 L 77.5289556041733 3.5 L 84.5289556041733 0 L 77.5289556041733 -3.5 L 77.5289556041733 -0.5 L 74.04572780208665 -0.5 Z"/><text text-anchor="middle" pointer-events="none" font-size="8px" fill="#000000" x="51.26447780208665" y="3" font-family="sans-serif">ACTED_IN</text></g></g><g class="layer nodes"><g class="node" transform="translate(149.55886406522538,205.3027054348894)"><circle class="outline" cx="0" cy="0" r="25" fill="#F79767" stroke="#f36924" stroke-width="2px"/><text text-anchor="middle" pointer-events="none" font-family="sans-serif" dy="1.5625" font-size="25" fill="#FFFFFF"/><text text-anchor="middle" pointer-events="none" font-family="sans-serif" dy="1.5625" font-size="25" fill="#FFFFFF"/><text text-anchor="middle" pointer-events="none" x="0" y="0" font-size="10px" fill="#FFFFFF" font-family="sans-serif"> Chris</text><text text-anchor="middle" pointer-events="none" x="0" y="10" font-size="10px" fill="#FFFFFF" font-family="sans-serif"> Evans</text></g><g class="node" transform="translate(84.00790984141973,114.53463939348993)"><circle class="outline" cx="0" cy="0" r="25" fill="#57C7E3" stroke="#23b3d7" stroke-width="2px"/><text text-anchor="middle" pointer-events="none" font-family="sans-serif" dy="1.5625" font-size="25" fill="#2A2C34"/><text text-anchor="middle" pointer-events="none" font-family="sans-serif" dy="1.5625" font-size="25" fill="#2A2C34"/><text text-anchor="middle" pointer-events="none" font-family="sans-serif" dy="1.5625" font-size="25" fill="#2A2C34"/><text text-anchor="middle" pointer-events="none" x="0" y="-5" font-size="10px" fill="#2A2C34" font-family="sans-serif"> Captain</text><text text-anchor="middle" pointer-events="none" x="0" y="5" font-size="10px" fill="#2A2C34" font-family="sans-serif"> America:</text><text text-anchor="middle" pointer-events="none" x="0" y="15" font-size="10px" fill="#2A2C34" font-family="sans-serif"> The Fi…</text></g><g class="node" transform="translate(193.17953084506965,90.17540591684721)"><circle class="outline" cx="0" cy="0" r="25" fill="#F79767" stroke="#f36924" stroke-width="2px"/><text text-anchor="middle" pointer-events="none" font-family="sans-serif" dy="1.5625" font-size="25" fill="#FFFFFF"/><text text-anchor="middle" pointer-events="none" font-family="sans-serif" dy="1.5625" font-size="25" fill="#FFFFFF"/><text text-anchor="middle" pointer-events="none" x="0" y="0" font-size="10px" fill="#FFFFFF" font-family="sans-serif"> Hayley</text><text text-anchor="middle" pointer-events="none" x="0" y="10" font-size="10px" fill="#FFFFFF" font-family="sans-serif"> Atwell</text></g><g class="node" transform="translate(118.09450097958941,8.023279730531966)"><circle class="outline" cx="0" cy="0" r="25" fill="#F79767" stroke="#f36924" stroke-width="2px"/><text text-anchor="middle" pointer-events="none" font-family="sans-serif" dy="1.5625" font-size="25" fill="#FFFFFF"/><text text-anchor="middle" pointer-events="none" x="0" y="5" font-size="10px" fill="#FFFFFF" font-family="sans-serif"> Christop…</text></g><g class="node" transform="translate(-0.5207809075649991,41.189953037474076)"><circle class="outline" cx="0" cy="0" r="25" fill="#F79767" stroke="#f36924" stroke-width="2px"/><text text-anchor="middle" pointer-events="none" font-family="sans-serif" dy="1.5625" font-size="25" fill="#FFFFFF"/><text text-anchor="middle" pointer-events="none" font-family="sans-serif" dy="1.5625" font-size="25" fill="#FFFFFF"/><text text-anchor="middle" pointer-events="none" x="0" y="0" font-size="10px" fill="#FFFFFF" font-family="sans-serif"> Joe</text><text text-anchor="middle" pointer-events="none" x="0" y="10" font-size="10px" fill="#FFFFFF" font-family="sans-serif"> Johnston</text></g><g class="node" transform="translate(3.240355271294234,188.51567915708588)"><circle class="outline" cx="0" cy="0" r="25" fill="#F79767" stroke="#f36924" stroke-width="2px"/><text text-anchor="middle" pointer-events="none" font-family="sans-serif" dy="1.5625" font-size="25" fill="#FFFFFF"/><text text-anchor="middle" pointer-events="none" x="0" y="5" font-size="10px" fill="#FFFFFF" font-family="sans-serif"> Sebastian</text></g></g></svg>