<svg xmlns="http://www.w3.org/2000/svg" width="179.21450805664062" height="242.82814025878906" viewBox="-16.281036376953125 -25.969179153442383 179.21450805664062 242.82814025878906"><title>Neo4j Graph Visualization</title><desc>Created using Neo4j (http://www.neo4j.com/)</desc><g class="layer relationships"><g class="relationship" transform="translate(31.43109890721155 109.81242115170045) rotate(300.8082796032751)"><path class="outline" fill="#A5ABB6" stroke="none" d="M 25 0.5 L 35.19214532845907 0.5 L 35.19214532845907 -0.5 L 25 -0.5 Z M 80.75464532845908 0.5 L 90.94679065691814 0.5 L 90.94679065691814 3.5 L 97.94679065691814 0 L 90.94679065691814 -3.5 L 90.94679065691814 -0.5 L 80.75464532845908 -0.5 Z"/><text text-anchor="middle" pointer-events="none" font-size="8px" fill="#000000" x="57.97339532845907" y="3" font-family="sans-serif">ACTED_IN</text></g><g class="relationship" transform="translate(31.43109890721155 109.81242115170045) rotate(260.060553845398)"><path class="outline" fill="#A5ABB6" stroke="none" d="M 25 0.5 L 27.9231181078328 0.5 L 27.9231181078328 -0.5 L 25 -0.5 Z M 73.4856181078328 0.5 L 76.4087362156656 0.5 L 76.4087362156656 3.5 L 83.4087362156656 0 L 76.4087362156656 -3.5 L 76.4087362156656 -0.5 L 73.4856181078328 -0.5 Z"/><text text-anchor="middle" pointer-events="none" font-size="8px" fill="#000000" x="50.7043681078328" y="3" transform="rotate(180 50.7043681078328 0)" font-family="sans-serif">ACTED_IN</text></g><g class="relationship" transform="translate(31.43109890721155 109.81242115170045) rotate(404.2561262641043)"><path class="outline" fill="#A5ABB6" stroke="none" d="M 25 0.5 L 29.636670076446507 0.5 L 29.636670076446507 -0.5 L 25 -0.5 Z M 75.1991700764465 0.5 L 79.83584015289301 0.5 L 79.83584015289301 3.5 L 86.83584015289301 0 L 79.83584015289301 -3.5 L 79.83584015289301 -0.5 L 75.1991700764465 -0.5 Z"/><text text-anchor="middle" pointer-events="none" font-size="8px" fill="#000000" x="52.41792007644651" y="3" font-family="sans-serif">ACTED_IN</text></g><g class="relationship" transform="translate(133.9334936353759 83.09703547387008) rotate(243.38141672108998)"><path class="outline" fill="#A5ABB6" stroke="none" d="M 25 0.5 L 25.616939415537892 0.5 L 25.616939415537892 -0.5 L 25 -0.5 Z M 55.61693941553789 0.5 L 56.233878831075785 0.5 L 56.233878831075785 3.5 L 63.233878831075785 0 L 56.233878831075785 -3.5 L 56.233878831075785 -0.5 L 55.61693941553789 -0.5 Z"/><text text-anchor="middle" pointer-events="none" font-size="8px" fill="#000000" x="40.61693941553789" y="3" transform="rotate(180 40.61693941553789 0)" font-family="sans-serif">ACT…</text></g><g class="relationship" transform="translate(133.9334936353759 83.09703547387008) rotate(213.44608370051805)"><path class="outline" fill="#A5ABB6" stroke="none" d="M 25 0.5 L 46.35407400542019 0.5 L 46.35407400542019 -0.5 L 25 -0.5 Z M 91.91657400542019 0.5 L 113.27064801084038 0.5 L 113.27064801084038 3.5 L 120.27064801084038 0 L 113.27064801084038 -3.5 L 113.27064801084038 -0.5 L 91.91657400542019 -0.5 Z"/><text text-anchor="middle" pointer-events="none" font-size="8px" fill="#000000" x="69.13532400542019" y="3" transform="rotate(180 69.13532400542019 0)" font-family="sans-serif">ACTED_IN</text></g><g class="relationship" transform="translate(133.9334936353759 83.09703547387008) rotate(462.07045241162973)"><path class="outline" fill="#A5ABB6" stroke="none" d="M 25 0.5 L 27.28397903366119 0.5 L 27.28397903366119 -0.5 L 25 -0.5 Z M 72.84647903366118 0.5 L 75.13045806732238 0.5 L 75.13045806732238 3.5 L 82.13045806732238 0 L 75.13045806732238 -3.5 L 75.13045806732238 -0.5 L 72.84647903366118 -0.5 Z"/><text text-anchor="middle" pointer-events="none" font-size="8px" fill="#000000" x="50.06522903366119" y="3" transform="rotate(180 50.06522903366119 0)" font-family="sans-serif">ACTED_IN</text></g></g><g class="layer nodes"><g class="node" transform="translate(31.43109890721155,109.81242115170045)"><circle class="outline" cx="0" cy="0" r="25" fill="#F79767" stroke="#f36924" stroke-width="2px"/><text text-anchor="middle" pointer-events="none" font-family="sans-serif" dy="1.5625" font-size="25" fill="#FFFFFF"/><text text-anchor="middle" pointer-events="none" font-family="sans-serif" dy="1.5625" font-size="25" fill="#FFFFFF"/><text text-anchor="middle" pointer-events="none" x="0" y="0" font-size="10px" fill="#FFFFFF" font-family="sans-serif"> Keanu</text><text text-anchor="middle" pointer-events="none" x="0" y="10" font-size="10px" fill="#FFFFFF" font-family="sans-serif"> Reeves</text></g><g class="node" transform="translate(133.9334936353759,83.09703547387008)"><circle class="outline" cx="0" cy="0" r="25" fill="#F79767" stroke="#f36924" stroke-width="2px"/><text text-anchor="middle" pointer-events="none" font-family="sans-serif" dy="1.5625" font-size="25" fill="#FFFFFF"/><text text-anchor="middle" pointer-events="none" font-family="sans-serif" dy="1.5625" font-size="25" fill="#FFFFFF"/><text text-anchor="middle" pointer-events="none" x="0" y="0" font-size="10px" fill="#FFFFFF" font-family="sans-serif"> Hugo</text><text text-anchor="middle" pointer-events="none" x="0" y="10" font-size="10px" fill="#FFFFFF" font-family="sans-serif"> Weaving</text></g><g class="node" transform="translate(94.40038595318735,4.215156879572832)"><circle class="outline" cx="0" cy="0" r="25" fill="#57C7E3" stroke="#23b3d7" stroke-width="2px"/><text text-anchor="middle" pointer-events="none" font-family="sans-serif" dy="1.5625" font-size="25" fill="#2A2C34"/><text text-anchor="middle" pointer-events="none" font-family="sans-serif" dy="1.5625" font-size="25" fill="#2A2C34"/><text text-anchor="middle" pointer-events="none" font-family="sans-serif" dy="1.5625" font-size="25" fill="#2A2C34"/><text text-anchor="middle" pointer-events="none" x="0" y="-5" font-size="10px" fill="#2A2C34" font-family="sans-serif"> The</text><text text-anchor="middle" pointer-events="none" x="0" y="5" font-size="10px" fill="#2A2C34" font-family="sans-serif"> Matrix</text><text text-anchor="middle" pointer-events="none" x="0" y="15" font-size="10px" fill="#2A2C34" font-family="sans-serif"> Revol…</text></g><g class="node" transform="translate(12.718962574969495,3.030821417657542)"><circle class="outline" cx="0" cy="0" r="25" fill="#57C7E3" stroke="#23b3d7" stroke-width="2px"/><text text-anchor="middle" pointer-events="none" font-family="sans-serif" dy="1.5625" font-size="25" fill="#2A2C34"/><text text-anchor="middle" pointer-events="none" font-family="sans-serif" dy="1.5625" font-size="25" fill="#2A2C34"/><text text-anchor="middle" pointer-events="none" font-family="sans-serif" dy="1.5625" font-size="25" fill="#2A2C34"/><text text-anchor="middle" pointer-events="none" x="0" y="-5" font-size="10px" fill="#2A2C34" font-family="sans-serif"> The</text><text text-anchor="middle" pointer-events="none" x="0" y="5" font-size="10px" fill="#2A2C34" font-family="sans-serif"> Matrix</text><text text-anchor="middle" pointer-events="none" x="0" y="15" font-size="10px" fill="#2A2C34" font-family="sans-serif"> Reloa…</text></g><g class="node" transform="translate(111.53098400274882,187.85896848330995)"><circle class="outline" cx="0" cy="0" r="25" fill="#57C7E3" stroke="#23b3d7" stroke-width="2px"/><text text-anchor="middle" pointer-events="none" font-family="sans-serif" dy="1.5625" font-size="25" fill="#2A2C34"/><text text-anchor="middle" pointer-events="none" font-family="sans-serif" dy="1.5625" font-size="25" fill="#2A2C34"/><text text-anchor="middle" pointer-events="none" x="0" y="0" font-size="10px" fill="#2A2C34" font-family="sans-serif"> The</text><text text-anchor="middle" pointer-events="none" x="0" y="10" font-size="10px" fill="#2A2C34" font-family="sans-serif"> Matrix</text></g></g></svg>