<svg xmlns="http://www.w3.org/2000/svg" width="163.43572998046875" height="242.5491943359375" viewBox="-0.3153724670410156 -20.149818420410156 163.43572998046875 242.5491943359375"><title>Neo4j Graph Visualization</title><desc>Created using Neo4j (http://www.neo4j.com/)</desc><g class="layer relationships"><g class="relationship" transform="translate(134.1203614736698 8.850181092341138) rotate(520.845312439097)"><path class="outline" fill="#A5ABB6" stroke="none" d="M 21.40063509461097,12.933012701892217 L 21.90063509461097,12.06698729810778 A 59.92173969170132 59.92173969170132 0 0 0 39.1957446824121,18.741091483882464 L 38.98437297786521,19.718497235101964 A 60.92173969170132 60.92173969170132 0 0 1 21.40063509461097,12.933012701892217 Z M 61.04523117847366,20.398794020715165 L 60.89448488848773,19.41022153674878 A 59.92173969170132 59.92173969170132 0 0 0 78.56796392285256,13.814453389434915 L 77.23089698588795,11.128889760310459 L 85.05712354697039,11.142224474704939 L 80.35071983880535,17.39520489493419 L 79.01365290184074,14.709641265809735 A 60.92173969170132 60.92173969170132 0 0 1 61.04523117847366,20.398794020715165"/><text text-anchor="middle" pointer-events="none" font-size="8px" fill="#000000" x="49.999148325073286" y="23.566269998131226" transform="rotate(180 49.999148325073286 20.566269998131226)" font-family="sans-serif">road</text></g><g class="relationship" transform="translate(32.631656010791836 44.102316534569646) rotate(452.1198024109959)"><path class="outline" fill="#A5ABB6" stroke="none" d="M 25 0.5 L 40.18599183732686 0.5 L 40.18599183732686 -0.5 L 25 -0.5 Z M 59.52192933732686 0.5 L 74.70792117465372 0.5 L 74.70792117465372 3.5 L 81.70792117465372 0 L 74.70792117465372 -3.5 L 74.70792117465372 -0.5 L 59.52192933732686 -0.5 Z"/><text text-anchor="middle" pointer-events="none" font-size="8px" fill="#000000" x="49.85396058732686" y="3" transform="rotate(180 49.85396058732686 0)" font-family="sans-serif">trek</text></g><g class="relationship" transform="translate(28.684626933175664 150.73721421294022) rotate(383.399148432744)"><path class="outline" fill="#A5ABB6" stroke="none" d="M 25 0.5 L 40.54454533459598 0.5 L 40.54454533459598 -0.5 L 25 -0.5 Z M 59.88048283459598 0.5 L 75.42502816919196 0.5 L 75.42502816919196 3.5 L 82.42502816919196 0 L 75.42502816919196 -3.5 L 75.42502816919196 -0.5 L 59.88048283459598 -0.5 Z"/><text text-anchor="middle" pointer-events="none" font-size="8px" fill="#000000" x="50.21251408459598" y="3" font-family="sans-serif">trek</text></g><g class="relationship" transform="translate(134.1203614736698 8.850181092341138) rotate(520.845312439097)"><path class="outline" fill="#A5ABB6" stroke="none" d="M 25 0.5 L 26.47231647817042 0.5 L 26.47231647817042 -0.5 L 25 -0.5 Z M 73.96450397817043 0.5 L 75.43682045634084 0.5 L 75.43682045634084 3.5 L 82.43682045634084 0 L 75.43682045634084 -3.5 L 75.43682045634084 -0.5 L 73.96450397817043 -0.5 Z"/><text text-anchor="middle" pointer-events="none" font-size="8px" fill="#000000" x="50.21841022817042" y="3" transform="rotate(180 50.21841022817042 0)" font-family="sans-serif">PublicTra…</text></g><g class="relationship" transform="translate(134.1203614736698 8.850181092341138) rotate(520.845312439097)"><path class="outline" fill="#A5ABB6" stroke="none" d="M 21.40063509461097,-12.933012701892217 L 21.90063509461097,-12.06698729810778 A 59.92173969170132 59.92173969170132 0 0 1 40.49558441629975,-19.007163549133985 L 40.30590500140559,-19.98900962646251 A 60.92173969170132 60.92173969170132 0 0 0 21.40063509461097,-12.933012701892217 Z M 59.70954227543917,-20.587364955466235 L 59.58072065322855,-19.595697173569988 A 59.92173969170132 59.92173969170132 0 0 1 78.56796392285256,-13.814453389434915 L 77.23089698588795,-11.128889760310459 L 85.05712354697039,-11.142224474704939 L 80.35071983880535,-17.39520489493419 L 79.01365290184074,-14.709641265809735 A 60.92173969170132 60.92173969170132 0 0 0 59.70954227543917,-20.587364955466235"/><text text-anchor="middle" pointer-events="none" font-size="8px" fill="#000000" x="49.99914832507328" y="-17.566269998131226" transform="rotate(180 49.99914832507328 -20.566269998131226)" font-family="sans-serif">trek</text></g></g><g class="layer nodes"><g class="node" transform="translate(134.1203614736698,8.850181092341138)"><circle class="outline" cx="0" cy="0" r="25" fill="#F16667" stroke="#eb2728" stroke-width="2px"/><text text-anchor="middle" pointer-events="none" font-family="sans-serif" dy="1.5625" font-size="25" fill="#FFFFFF"/><text text-anchor="middle" pointer-events="none" x="0" y="5" font-size="10px" fill="#FFFFFF" font-family="sans-serif"> Darjeeling</text></g><g class="node" transform="translate(127.27507753339897,193.3993722408297)"><circle class="outline" cx="0" cy="0" r="25" fill="#D9C8AE" stroke="#c0a378" stroke-width="2px"/><text text-anchor="middle" pointer-events="none" font-family="sans-serif" dy="1.5625" font-size="25" fill="#2A2C34"/><text text-anchor="middle" pointer-events="none" x="0" y="5" font-size="10px" fill="#2A2C34" font-family="sans-serif"> Sandak…</text></g><g class="node" transform="translate(32.631656010791836,44.102316534569646)"><circle class="outline" cx="0" cy="0" r="25" fill="#F16667" stroke="#eb2728" stroke-width="2px"/><text text-anchor="middle" pointer-events="none" font-family="sans-serif" dy="1.5625" font-size="25" fill="#FFFFFF"/><text text-anchor="middle" pointer-events="none" x="0" y="5" font-size="10px" fill="#FFFFFF" font-family="sans-serif"> Rimbik</text></g><g class="node" transform="translate(28.684626933175664,150.73721421294022)"><circle class="outline" cx="0" cy="0" r="25" fill="#8DCC93" stroke="#5db665" stroke-width="2px"/><text text-anchor="middle" pointer-events="none" font-family="sans-serif" dy="1.5625" font-size="25" fill="#2A2C34"/><text text-anchor="middle" pointer-events="none" x="0" y="5" font-size="10px" fill="#2A2C34" font-family="sans-serif"> BhikeBh…</text></g></g></svg>