<svg xmlns="http://www.w3.org/2000/svg" width="197.3563232421875" height="187.40538024902344" viewBox="-25.200698852539062 6.454146862030029 197.3563232421875 187.40538024902344"><title>Neo4j Graph Visualization</title><desc>Created using Neo4j (http://www.neo4j.com/)</desc><g class="layer relationships"><g class="relationship" transform="translate(69.96444597846072 164.85952439878957) rotate(252.93797036707008)"><path class="outline" fill="#A5ABB6" stroke="none" d="M 5.987513214418485,24.277555179777966 L 6.953439040707552,24.018736134675446 A 45.890142893279 45.890142893279 0 0 0 14.17916261803299,39.14963117721832 L 13.370693777531251,39.7381701597316 A 46.890142893279 46.890142893279 0 0 1 5.987513214418485,24.277555179777966 Z M 85.4557737724148,44.245948578284036 L 84.72692420126342,43.56127471239426 A 45.890142893279 45.890142893279 0 0 0 93.78137882991855,29.448446598157606 L 91.00290858008705,28.31703019788701 L 96.88442880552185,23.15391874859587 L 97.48600582969388,30.9570017985184 L 94.70753557986238,29.825585398247807 A 46.890142893279 46.890142893279 0 0 1 85.4557737724148,44.245948578284036"/><text text-anchor="middle" pointer-events="none" font-size="8px" fill="#000000" x="48.38460114759363" y="61.44119647051671" transform="rotate(180 48.38460114759363 58.44119647051671)" font-family="sans-serif">ECONOMY_DIRECT</text></g><g class="relationship" transform="translate(143.15561798510257 43.050291075443646) rotate(529.0607320422694)"><path class="outline" fill="#A5ABB6" stroke="none" d="M 17.324116139070416,18.03122292025696 L 18.031222920256962,17.324116139070412 A 47.02300785418001 47.02300785418001 0 0 0 18.966913820616597,18.234187013645126 L 18.27970561553265,18.960647530717665 A 48.02300785418001 48.02300785418001 0 0 1 17.324116139070416,18.03122292025696 Z M 81.05514621823802,21.753264557972265 L 80.43515932231287,20.96865239334499 A 47.02300785418001 47.02300785418001 0 0 0 81.44796467184874,20.145261974578432 L 79.52338846526109,17.843956600440364 L 87.13843991260217,16.03813505489696 L 84.01406628063225,23.213669140095853 L 82.0894900740446,20.912363765957785 A 48.02300785418001 48.02300785418001 0 0 1 81.05514621823802,21.753264557972265"/><text text-anchor="middle" pointer-events="none" font-size="8px" fill="#000000" x="49.16949940464846" y="34.549882209436504" transform="rotate(180 49.16949940464846 31.549882209436504)" font-family="sans-serif">ECONOMY_DI…</text></g><g class="relationship" transform="translate(69.96444597846072 164.85952439878957) rotate(252.93797036707008)"><path class="outline" fill="#A5ABB6" stroke="none" d="M 14.44320574945421,20.411854586953456 L 15.247803529220876,19.818034401379958 A 44.7827605423541 44.7827605423541 0 0 0 15.857606818583328,20.62505149645436 L 15.06662595930073,21.2368923910083 A 45.7827605423541 45.7827605423541 0 0 1 14.44320574945421,20.411854586953456 Z M 84.45652674489767,24.774667298163262 L 83.73187377250242,24.085553323846426 A 44.7827605423541 44.7827605423541 0 0 0 84.42059165070062,23.344740035824568 L 82.20049547869694,21.32702524253623 L 89.49860886370735,18.500801433364032 L 87.38071988003885,26.03502642687568 L 85.16062370803517,24.017311633587344 A 45.7827605423541 45.7827605423541 0 0 1 84.45652674489767,24.774667298163262"/><text text-anchor="middle" pointer-events="none" font-size="8px" fill="#000000" x="48.974211575174984" y="41.44914896407051" transform="rotate(180 48.974211575174984 38.44914896407051)" font-family="sans-serif">FIRST_CLASS_D…</text></g><g class="relationship" transform="translate(69.96444597846072 164.85952439878957) rotate(252.93797036707008)"><path class="outline" fill="#A5ABB6" stroke="none" d="M 20.90208894244944,13.724164012497553 L 21.434121018964774,12.87743981326927 A 56.09773081716856 56.09773081716856 0 0 0 21.788140510955362,13.098053396041507 L 21.26241919758202,13.9487102602735 A 57.09773081716856 57.09773081716856 0 0 1 20.90208894244944,13.724164012497553 Z M 78.01169576812877,15.83170302628114 L 77.54351985023976,14.948067745235399 A 56.09773081716856 56.09773081716856 0 0 0 77.91138488676164,14.751406949656694 L 76.48718441026804,12.111018152006732 L 84.3096588273605,11.868337304113297 L 79.81031885541978,18.27192534652331 L 78.38611837892618,15.631536548873349 A 57.09773081716856 57.09773081716856 0 0 1 78.01169576812877,15.83170302628114"/><text text-anchor="middle" pointer-events="none" font-size="8px" fill="#000000" x="49.40298183486398" y="24.944733843856632" transform="rotate(180 49.40298183486398 21.944733843856632)" font-family="sans-serif">BUSINESS_…</text></g><g class="relationship" transform="translate(69.96444597846072 164.85952439878957) rotate(252.93797036707008)"><path class="outline" fill="#A5ABB6" stroke="none" d="M 24.471206027250748,5.139073415689509 L 24.657117634413662,4.15650694245622 A 143.20136329991536 143.20136329991536 0 0 0 25.741535077828676,4.357367603154557 L 25.563196146081875,5.3413367212794185 A 144.20136329991536 144.20136329991536 0 0 1 24.471206027250748,5.139073415689509 Z M 73.72758726056759,5.8950937405221 L 73.57191831602051,4.907284457460037 A 143.20136329991536 143.20136329991536 0 0 0 74.66066717859367,4.731409186757833 L 74.17085157754653,1.7716658402882723 L 81.6483709205305,4.081796675392781 L 75.31375464665652,8.677733648717247 L 74.82393904560938,5.717990302247687 A 144.20136329991536 144.20136329991536 0 0 1 73.72758726056759,5.8950937405221"/><text text-anchor="middle" pointer-events="none" font-size="8px" fill="#000000" x="49.62785498293987" y="10.143515010643398" transform="rotate(180 49.62785498293987 7.143515010643398)" font-family="sans-serif">DIRECT_…</text></g><g class="relationship" transform="translate(143.15561798510257 43.050291075443646) rotate(529.0607320422694)"><path class="outline" fill="#A5ABB6" stroke="none" d="M 24.018736134675446,6.953439040707552 L 24.277555179777966,5.987513214418485 A 104.33527198611468 104.33527198611468 0 0 0 26.299973138786715,6.507782983889896 L 26.060537931196766,7.478695328731774 A 105.33527198611468 105.33527198611468 0 0 1 24.018736134675446,6.953439040707552 Z M 73.21318578499532,8.234177622905605 L 73.00497751130186,7.256093109805846 A 104.33527198611468 104.33527198611468 0 0 0 75.04302470481846,6.800880334341504 L 74.35979897664157,3.8797157370691844 L 81.97294638648336,5.693547734807468 L 75.95399234238766,10.69576646403793 L 75.27076661421077,7.77460186676561 A 105.33527198611468 105.33527198611468 0 0 1 73.21318578499532,8.234177622905605"/><text text-anchor="middle" pointer-events="none" font-size="8px" fill="#000000" x="49.602049753676944" y="13.029198052605096" transform="rotate(180 49.602049753676944 10.029198052605096)" font-family="sans-serif">FIRST_C…</text></g><g class="relationship" transform="translate(143.15561798510257 43.050291075443646) rotate(529.0607320422694)"><path class="outline" fill="#A5ABB6" stroke="none" d="M 24.018736134675446,-6.953439040707552 L 24.277555179777966,-5.987513214418485 A 104.33527198611468 104.33527198611468 0 0 1 25.438407111053216,-6.29141860580819 L 25.190714235549695,-7.260257209201342 A 105.33527198611468 105.33527198611468 0 0 0 24.018736134675446,-6.953439040707552 Z M 74.08956087545,-8.043717195510254 L 73.87303273820153,-7.067440817746402 A 104.33527198611468 104.33527198611468 0 0 1 75.04302470481846,-6.800880334341504 L 74.35979897664157,-3.8797157370691844 L 81.97294638648336,-5.693547734807468 L 75.95399234238766,-10.69576646403793 L 75.27076661421077,-7.77460186676561 A 105.33527198611468 105.33527198611468 0 0 0 74.08956087545,-8.043717195510254"/><text text-anchor="middle" pointer-events="none" font-size="8px" fill="#000000" x="49.60204975367694" y="-7.029198052605096" transform="rotate(180 49.60204975367694 -10.029198052605096)" font-family="sans-serif">BUSINES…</text></g><g class="relationship" transform="translate(143.15561798510257 43.050291075443646) rotate(529.0607320422694)"><path class="outline" fill="#A5ABB6" stroke="none" d="M 17.324116139070416,-18.03122292025696 L 18.031222920256962,-17.324116139070412 A 47.02300785418001 47.02300785418001 0 0 1 18.649630342336124,-17.931230196936575 L 17.955674727999572,-18.65124797819672 A 48.02300785418001 48.02300785418001 0 0 0 17.324116139070416,-18.03122292025696 Z M 81.40537054894439,-21.473859802542222 L 80.77809080847751,-20.695065781507253 A 47.02300785418001 47.02300785418001 0 0 1 81.44796467184874,-20.145261974578432 L 79.52338846526109,-17.843956600440364 L 87.13843991260217,-16.03813505489696 L 84.01406628063225,-23.213669140095853 L 82.0894900740446,-20.912363765957785 A 48.02300785418001 48.02300785418001 0 0 0 81.40537054894439,-21.473859802542222"/><text text-anchor="middle" pointer-events="none" font-size="8px" fill="#000000" x="49.16949940464846" y="-28.549882209436504" transform="rotate(180 49.16949940464846 -31.549882209436504)" font-family="sans-serif">DIRECT_FLIGHT</text></g><g class="relationship" transform="translate(38.77151331995673 63.225704215375075) rotate(432.9379703670701)"><path class="outline" fill="#A5ABB6" stroke="none" d="M 24.471206027250748,5.139073415689509 L 24.657117634413662,4.15650694245622 A 143.20136329991536 143.20136329991536 0 0 0 25.741535077828676,4.357367603154557 L 25.563196146081875,5.3413367212794185 A 144.20136329991536 144.20136329991536 0 0 1 24.471206027250748,5.139073415689509 Z M 73.72758726056759,5.8950937405221 L 73.57191831602051,4.907284457460037 A 143.20136329991536 143.20136329991536 0 0 0 74.66066717859367,4.731409186757833 L 74.17085157754653,1.7716658402882723 L 81.6483709205305,4.081796675392781 L 75.31375464665652,8.677733648717247 L 74.82393904560938,5.717990302247687 A 144.20136329991536 144.20136329991536 0 0 1 73.72758726056759,5.8950937405221"/><text text-anchor="middle" pointer-events="none" font-size="8px" fill="#000000" x="49.62785498293987" y="10.143515010643398" font-family="sans-serif">DIRECT_…</text></g><g class="relationship" transform="translate(38.77151331995673 63.225704215375075) rotate(432.9379703670701)"><path class="outline" fill="#A5ABB6" stroke="none" d="M 20.90208894244944,13.724164012497553 L 21.434121018964774,12.87743981326927 A 56.09773081716856 56.09773081716856 0 0 0 23.307699661574613,14.004367996267668 L 22.80906605974475,14.871180854459205 A 57.09773081716856 57.09773081716856 0 0 1 20.90208894244944,13.724164012497553 Z M 76.40730128553832,16.649619194117733 L 75.96722446124951,15.751659067651154 A 56.09773081716856 56.09773081716856 0 0 0 77.91138488676164,14.751406949656694 L 76.48718441026804,12.111018152006732 L 84.3096588273605,11.868337304113297 L 79.81031885541978,18.27192534652331 L 78.38611837892618,15.631536548873349 A 57.09773081716856 57.09773081716856 0 0 1 76.40730128553832,16.649619194117733"/><text text-anchor="middle" pointer-events="none" font-size="8px" fill="#000000" x="49.40298183486398" y="24.944733843856632" font-family="sans-serif">ECONOMY…</text></g><g class="relationship" transform="translate(38.77151331995673 63.225704215375075) rotate(432.9379703670701)"><path class="outline" fill="#A5ABB6" stroke="none" d="M 14.44320574945421,20.411854586953456 L 15.247803529220876,19.818034401379958 A 44.7827605423541 44.7827605423541 0 0 0 15.857606818583328,20.62505149645436 L 15.06662595930073,21.2368923910083 A 45.7827605423541 45.7827605423541 0 0 1 14.44320574945421,20.411854586953456 Z M 84.45652674489767,24.774667298163262 L 83.73187377250242,24.085553323846426 A 44.7827605423541 44.7827605423541 0 0 0 84.42059165070062,23.344740035824568 L 82.20049547869694,21.32702524253623 L 89.49860886370735,18.500801433364032 L 87.38071988003885,26.03502642687568 L 85.16062370803517,24.017311633587344 A 45.7827605423541 45.7827605423541 0 0 1 84.45652674489767,24.774667298163262"/><text text-anchor="middle" pointer-events="none" font-size="8px" fill="#000000" x="48.974211575174984" y="41.44914896407051" font-family="sans-serif">BUSINESS_DIRE…</text></g><g class="relationship" transform="translate(38.77151331995673 63.225704215375075) rotate(432.9379703670701)"><path class="outline" fill="#A5ABB6" stroke="none" d="M 5.987513214418485,24.277555179777966 L 6.953439040707552,24.018736134675446 A 45.890142893279 45.890142893279 0 0 0 10.897734232669464,33.94022785756023 L 10.017759221594346,34.415247835964664 A 46.890142893279 46.890142893279 0 0 1 5.987513214418485,24.277555179777966 Z M 89.44572257664625,39.38220714386705 L 88.63178158631723,38.801259586627836 A 45.890142893279 45.890142893279 0 0 0 93.78137882991855,29.448446598157606 L 91.00290858008705,28.31703019788701 L 96.88442880552185,23.15391874859587 L 97.48600582969388,30.9570017985184 L 94.70753557986238,29.825585398247807 A 46.890142893279 46.890142893279 0 0 1 89.44572257664625,39.38220714386705"/><text text-anchor="middle" pointer-events="none" font-size="8px" fill="#000000" x="48.38460114759363" y="61.44119647051671" font-family="sans-serif">FIRST_CLASS_DIRECT</text></g></g><g class="layer nodes"><g class="node" transform="translate(69.96444597846072,164.85952439878957)"><circle class="outline" cx="0" cy="0" r="25" fill="#ECB5C9" stroke="#da7298" stroke-width="2px"/><text text-anchor="middle" pointer-events="none" font-family="sans-serif" dy="1.5625" font-size="25" fill="#2A2C34"/><text text-anchor="middle" pointer-events="none" x="0" y="5" font-size="10px" fill="#2A2C34" font-family="sans-serif"> MSN</text></g><g class="node" transform="translate(143.15561798510257,43.050291075443646)"><circle class="outline" cx="0" cy="0" r="25" fill="#ECB5C9" stroke="#da7298" stroke-width="2px"/><text text-anchor="middle" pointer-events="none" font-family="sans-serif" dy="1.5625" font-size="25" fill="#2A2C34"/><text text-anchor="middle" pointer-events="none" x="0" y="5" font-size="10px" fill="#2A2C34" font-family="sans-serif"> IND</text></g><g class="node" transform="translate(38.77151331995673,63.225704215375075)"><circle class="outline" cx="0" cy="0" r="25" fill="#ECB5C9" stroke="#da7298" stroke-width="2px"/><text text-anchor="middle" pointer-events="none" font-family="sans-serif" dy="1.5625" font-size="25" fill="#2A2C34"/><text text-anchor="middle" pointer-events="none" x="0" y="5" font-size="10px" fill="#2A2C34" font-family="sans-serif"> ORD</text></g></g></svg>