<svg xmlns="http://www.w3.org/2000/svg" width="284.6576232910156" height="309.53924560546875" viewBox="-47.17639923095703 -40.404136657714844 284.6576232910156 309.53924560546875"><title>Neo4j Graph Visualization</title><desc>Created using Neo4j (http://www.neo4j.com/)</desc><g class="layer relationships"><g class="relationship" transform="translate(208.481242552351 44.85954170273453) rotate(211.26815123185338)"><path class="outline" fill="#A5ABB6" stroke="none" d="M 17.324116139070416,-18.03122292025696 L 18.031222920256962,-17.324116139070412 A 48.54666272262154 48.54666272262154 0 0 1 19.81609022190632,-19.02065811621101 L 19.145749455138677,-19.762711521573024 A 49.54666272262154 49.54666272262154 0 0 0 17.324116139070416,-18.03122292025696 Z M 82.24067637164956,-22.517968371793508 L 81.63757260251099,-21.72030563375766 A 48.54666272262154 48.54666272262154 0 0 1 83.56353427752904,-20.185809758540387 L 81.63520582864538,-17.887647581228705 L 89.24730076607024,-16.069403740697144 L 86.13463887604058,-23.250025994955962 L 84.20631042715692,-20.95186381764428 A 49.54666272262154 49.54666272262154 0 0 0 82.24067637164956,-22.517968371793508"/><text text-anchor="middle" pointer-events="none" font-size="8px" fill="#000000" x="50.219145436544416" y="-28.996406887568625" transform="rotate(180 50.219145436544416 -31.996406887568625)" font-family="sans-serif">ECONOMY_DI…</text></g><g class="relationship" transform="translate(115.82776759773769 -11.404135630678608) rotate(509.4706404751928)"><path class="outline" fill="#A5ABB6" stroke="none" d="M 17.324116139070416,18.03122292025696 L 18.031222920256962,17.324116139070412 A 48.07343520293956 48.07343520293956 0 0 0 19.550388073663946,18.778233865687305 L 18.874882220245382,19.51558849000132 A 49.07343520293956 49.07343520293956 0 0 1 17.324116139070416,18.03122292025696 Z M 81.87375988636926,22.28244780364262 L 81.26549831234776,21.48871116119193 A 48.07343520293956 48.07343520293956 0 0 0 82.90629555950974,20.173376405362344 L 80.97911766082483,17.874249321702024 L 88.5921217378313,16.05981582237427 L 85.47586609108963,23.238879183576103 L 83.54868819240471,20.939752099915783 A 49.07343520293956 49.07343520293956 0 0 1 81.87375988636926,22.28244780364262"/><text text-anchor="middle" pointer-events="none" font-size="8px" fill="#000000" x="49.89302378782085" y="34.857720455945945" transform="rotate(180 49.89302378782085 31.857720455945945)" font-family="sans-serif">ECONOMY_DI…</text></g><g class="relationship" transform="translate(-1.6584734850982918 148.20880032718378) rotate(283.238142956656)"><path class="outline" fill="#A5ABB6" stroke="none" d="M 17.324116139070416,-18.03122292025696 L 18.031222920256962,-17.324116139070412 A 48.06527865525585 48.06527865525585 0 0 1 19.54582351143977,-18.774041110513245 L 18.870228054717728,-19.511313637369184 A 49.06527865525585 49.06527865525585 0 0 0 17.324116139070416,-18.03122292025696 Z M 81.86742580243538,-22.278372971620655 L 81.25907465833708,-21.484704977132843 A 48.06527865525585 48.06527865525585 0 0 1 82.8949687214309,-20.173160853605438 L 80.9678107694789,-17.874017050310783 L 88.58083058777709,-16.059649599599908 L 85.46451265736688,-23.238685924664978 L 83.53735470541488,-20.939542121370323 A 49.06527865525585 49.06527865525585 0 0 0 81.86742580243538,-22.278372971620655"/><text text-anchor="middle" pointer-events="none" font-size="8px" fill="#000000" x="49.88740365427692" y="-28.85533006963022" font-family="sans-serif">ECONOMY_DI…</text></g><g class="relationship" transform="translate(-1.6584734850982918 148.20880032718378) rotate(401.4386938345681)"><path class="outline" fill="#A5ABB6" stroke="none" d="M 5.987513214418485,-24.277555179777966 L 6.953439040707552,-24.018736134675446 A 46.99873712211693 46.99873712211693 0 0 1 14.96250268291935,-40.33265633621804 L 14.166987044916866,-40.93858939332378 A 47.99873712211693 47.99873712211693 0 0 0 5.987513214418485,-24.277555179777966 Z M 86.69226282247745,-45.38870118130042 L 85.97679546121802,-44.69005502266755 A 46.99873712211693 46.99873712211693 0 0 1 95.92029468413385,-29.477694391550134 L 93.13918410614134,-28.352783749330843 L 99.00860461231093,-23.175921483270844 L 99.62844212145718,-30.97757524784252 L 96.84733154346468,-29.85266460562323 A 47.99873712211693 47.99873712211693 0 0 0 86.69226282247745,-45.38870118130042"/><text text-anchor="middle" pointer-events="none" font-size="8px" fill="#000000" x="49.44170722197083" y="-56.2641407135327" font-family="sans-serif">ECONOMY_DIRECT</text></g><g class="relationship" transform="translate(208.481242552351 44.85954170273453) rotate(211.26815123185338)"><path class="outline" fill="#A5ABB6" stroke="none" d="M 24.018736134675446,-6.953439040707552 L 24.277555179777966,-5.987513214418485 A 108.49797449989656 108.49797449989656 0 0 1 24.53177541162213,-6.055301060409263 L 24.27529945387231,-7.021851671136048 A 109.49797449989656 109.49797449989656 0 0 0 24.018736134675446,-6.953439040707552 Z M 77.09935535548163,-7.852895361622799 L 76.87341092013406,-6.878755170410329 A 108.49797449989656 108.49797449989656 0 0 1 77.12963773064563,-6.81899782845103 L 76.44471968007123,-3.8982295623954433 L 84.0589166932044,-5.707650421453355 L 78.04286179807816,-10.713355516525146 L 77.35794374750377,-7.792587250469559 A 109.49797449989656 109.49797449989656 0 0 0 77.09935535548163,-7.852895361622799"/><text text-anchor="middle" pointer-events="none" font-size="8px" fill="#000000" x="50.644321092560666" y="-7.171005768642203" transform="rotate(180 50.644321092560666 -10.171005768642203)" font-family="sans-serif">DIRECT_F…</text></g><g class="relationship" transform="translate(208.481242552351 44.85954170273453) rotate(211.26815123185338)"><path class="outline" fill="#A5ABB6" stroke="none" d="M 24.018736134675446,6.953439040707552 L 24.277555179777966,5.987513214418485 A 108.49797449989656 108.49797449989656 0 0 0 26.456809488507183,6.547289731494217 L 26.218076111536018,7.518374884670777 A 109.49797449989656 109.49797449989656 0 0 1 24.018736134675446,6.953439040707552 Z M 75.1419211196015,8.288059302391986 L 74.93385312667051,7.309944937750672 A 108.49797449989656 108.49797449989656 0 0 0 77.12963773064563,6.81899782845103 L 76.44471968007123,3.8982295623954433 L 84.0589166932044,5.707650421453355 L 78.04286179807816,10.713355516525146 L 77.35794374750377,7.792587250469559 A 109.49797449989656 109.49797449989656 0 0 1 75.1419211196015,8.288059302391986"/><text text-anchor="middle" pointer-events="none" font-size="8px" fill="#000000" x="50.644321092560716" y="13.171005768642203" transform="rotate(180 50.644321092560716 10.171005768642203)" font-family="sans-serif">BUSINES…</text></g><g class="relationship" transform="translate(208.481242552351 44.85954170273453) rotate(211.26815123185338)"><path class="outline" fill="#A5ABB6" stroke="none" d="M 17.324116139070416,18.03122292025696 L 18.031222920256962,17.324116139070412 A 48.54666272262154 48.54666272262154 0 0 0 18.213420306429576,17.505351587442114 L 17.51006656151688,18.21619159019751 A 49.54666272262154 49.54666272262154 0 0 1 17.324116139070416,18.03122292025696 Z M 84.00494400627497,21.119918966356785 L 83.36623203392597,20.350473051182725 A 48.54666272262154 48.54666272262154 0 0 0 83.56353427752904,20.185809758540387 L 81.63520582864538,17.887647581228705 L 89.24730076607024,16.069403740697144 L 86.13463887604058,23.250025994955962 L 84.20631042715692,20.95186381764428 A 49.54666272262154 49.54666272262154 0 0 1 84.00494400627497,21.119918966356785"/><text text-anchor="middle" pointer-events="none" font-size="8px" fill="#000000" x="50.219145436544416" y="34.996406887568625" transform="rotate(180 50.219145436544416 31.996406887568625)" font-family="sans-serif">FIRST_CLASS_…</text></g><g class="relationship" transform="translate(115.82776759773769 -11.404135630678608) rotate(509.4706404751928)"><path class="outline" fill="#A5ABB6" stroke="none" d="M 24.018736134675446,6.953439040707552 L 24.277555179777966,5.987513214418485 A 107.20509287258558 107.20509287258558 0 0 0 24.855490265156245,6.140644472839838 L 24.60206214943863,7.10799869450004 A 108.20509287258558 108.20509287258558 0 0 1 24.018736134675446,6.953439040707552 Z M 76.1214973368214,7.923098126919129 L 75.89879781547809,6.948210993352646 A 107.20509287258558 107.20509287258558 0 0 0 76.48128787569661,6.813439056498026 L 75.79688905825675,3.892549079335768 L 83.41076429198185,5.703323478665417 L 77.39381963228307,10.707959026047703 L 76.70942081484321,7.787069048885445 A 108.20509287258558 108.20509287258558 0 0 1 76.1214973368214,7.923098126919129"/><text text-anchor="middle" pointer-events="none" font-size="8px" fill="#000000" x="50.32046405738515" y="13.126960846168487" transform="rotate(180 50.32046405738515 10.126960846168487)" font-family="sans-serif">FIRST_CL…</text></g><g class="relationship" transform="translate(115.82776759773769 -11.404135630678608) rotate(509.4706404751928)"><path class="outline" fill="#A5ABB6" stroke="none" d="M 24.018736134675446,-6.953439040707552 L 24.277555179777966,-5.987513214418485 A 107.20509287258558 107.20509287258558 0 0 1 26.14009953735163,-6.4687120674897045 L 25.89865414780657,-7.439126475805779 A 108.20509287258558 108.20509287258558 0 0 0 24.018736134675446,-6.953439040707552 Z M 74.81507921954429,-8.213043157285796 L 74.60445323450685,-7.235476436070812 A 107.20509287258558 107.20509287258558 0 0 1 76.48128787569661,-6.813439056498026 L 75.79688905825675,-3.892549079335768 L 83.41076429198185,-5.703323478665417 L 77.39381963228307,-10.707959026047703 L 76.70942081484321,-7.787069048885445 A 108.20509287258558 108.20509287258558 0 0 0 74.81507921954429,-8.213043157285796"/><text text-anchor="middle" pointer-events="none" font-size="8px" fill="#000000" x="50.32046405738516" y="-7.126960846168487" transform="rotate(180 50.32046405738516 -10.126960846168487)" font-family="sans-serif">BUSINES…</text></g><g class="relationship" transform="translate(115.82776759773769 -11.404135630678608) rotate(509.4706404751928)"><path class="outline" fill="#A5ABB6" stroke="none" d="M 17.324116139070416,-18.03122292025696 L 18.031222920256962,-17.324116139070412 A 48.07343520293956 48.07343520293956 0 0 1 19.228197367013678,-18.480352406021915 L 18.54598946067774,-19.211510646441 A 49.07343520293956 49.07343520293956 0 0 0 17.324116139070416,-18.03122292025696 Z M 82.22804457021317,-22.008374556071935 L 81.61256351619443,-21.22022287514752 A 48.07343520293956 48.07343520293956 0 0 1 82.90629555950974,-20.173376405362344 L 80.97911766082483,-17.874249321702024 L 88.5921217378313,-16.05981582237427 L 85.47586609108963,-23.238879183576103 L 83.54868819240471,-20.939752099915783 A 49.07343520293956 49.07343520293956 0 0 0 82.22804457021317,-22.008374556071935"/><text text-anchor="middle" pointer-events="none" font-size="8px" fill="#000000" x="49.89302378782086" y="-28.857720455945945" transform="rotate(180 49.89302378782086 -31.857720455945945)" font-family="sans-serif">DIRECT_FLIGHT</text></g><g class="relationship" transform="translate(-1.6584734850982918 148.20880032718378) rotate(401.4386938345681)"><path class="outline" fill="#A5ABB6" stroke="none" d="M 9.265372650015623,-23.225048324090576 L 10.18659379640068,-22.83600899516225 A 45.76983431067085 45.76983431067085 0 0 1 19.51571300172806,-36.91609142931263 L 18.798318662798856,-37.61275875485068 A 46.76983431067085 46.76983431067085 0 0 0 9.265372650015623,-23.225048324090576 Z M 81.90834986554489,-41.275635391449235 L 81.27636950317552,-40.50065099058722 A 45.76983431067085 45.76983431067085 0 0 1 92.17176344495994,-27.594389821952554 L 89.56167990316231,-26.11538207862016 L 96.05779543636845,-21.750696181646827 L 95.65187483402343,-29.56640014639574 L 93.04179129222581,-28.087392403063348 A 46.76983431067085 46.76983431067085 0 0 0 81.90834986554489,-41.275635391449235"/><text text-anchor="middle" pointer-events="none" font-size="8px" fill="#000000" x="49.669765269843495" y="-48.221842034011935" font-family="sans-serif">DIRECT_FLIGHT</text></g><g class="relationship" transform="translate(-1.6584734850982918 148.20880032718378) rotate(283.238142956656)"><path class="outline" fill="#A5ABB6" stroke="none" d="M 24.018736134675446,-6.953439040707552 L 24.277555179777966,-5.987513214418485 A 107.1828087698993 107.1828087698993 0 0 1 26.56687832845694,-6.573963179609919 L 26.32941833500601,-7.545360498687074 A 108.1828087698993 108.1828087698993 0 0 0 24.018736134675446,-6.953439040707552 Z M 74.3699925598151,-8.305494191724506 L 74.16338408461507,-7.327070491083774 A 107.1828087698993 107.1828087698993 0 0 1 76.47011506375739,-6.81334271237646 L 75.78572524563158,-3.8924506265838783 L 83.39959490029437,-5.703248484381685 L 77.38263482125846,-10.707865493433234 L 76.69824500313266,-7.7869734076406525 A 108.1828087698993 108.1828087698993 0 0 0 74.3699925598151,-8.305494191724506"/><text text-anchor="middle" pointer-events="none" font-size="8px" fill="#000000" x="50.314883158891774" y="-7.126201697911469" font-family="sans-serif">DIRECT_…</text></g><g class="relationship" transform="translate(-1.6584734850982918 148.20880032718378) rotate(401.4386938345681)"><path class="outline" fill="#A5ABB6" stroke="none" d="M 12.367599250055083,-21.732291383791928 L 13.226653204424967,-21.22040633470233 A 45.543216030247585 45.543216030247585 0 0 1 19.69944119626868,-29.65775382614425 L 18.982511328778052,-30.3548991231232 A 46.543216030247585 46.543216030247585 0 0 0 12.367599250055083,-21.732291383791928 Z M 82.05172121985917,-33.7421666128007 L 81.41358336168827,-32.97224449078507 A 45.543216030247585 45.543216030247585 0 0 1 88.7528229089634,-25.27670162842573 L 86.35496260931816,-23.473852221685036 L 93.35911490796589,-19.9821691637103 L 91.94996997515705,-27.68050083741332 L 89.55210967551182,-25.877651430672625 A 46.543216030247585 46.543216030247585 0 0 0 82.05172121985917,-33.7421666128007"/><text text-anchor="middle" pointer-events="none" font-size="8px" fill="#000000" x="49.88144185816826" y="-40.884469444200306" font-family="sans-serif">DIRECT_FLIGHT</text></g><g class="relationship" transform="translate(-1.6584734850982918 148.20880032718378) rotate(401.4386938345681)"><path class="outline" fill="#A5ABB6" stroke="none" d="M 15.235387732235946,-19.82758080675589 L 16.015990413247987,-19.20255324384621 A 46.5470379496718 46.5470379496718 0 0 1 19.673342252705623,-23.257748193700507 L 18.97131281717941,-23.969896121911177 A 47.5470379496718 47.5470379496718 0 0 0 15.235387732235946,-19.82758080675589 Z M 82.29969651671698,-27.038769109574268 L 81.66981577591275,-26.26207724508494 A 46.5470379496718 46.5470379496718 0 0 1 85.70213651862886,-22.579521340992052 L 83.552607464293,-20.486789909449534 L 90.94343136795072,-17.91274211946547 L 88.56817525774335,-25.369829916382074 L 86.41864620340749,-23.277098484839556 A 47.5470379496718 47.5470379496718 0 0 0 82.29969651671698,-27.038769109574268"/><text text-anchor="middle" pointer-events="none" font-size="8px" fill="#000000" x="50.07352105670837" y="-34.101265380698855" font-family="sans-serif">DIRECT_FLIGHT</text></g><g class="relationship" transform="translate(-1.6584734850982918 148.20880032718378) rotate(401.4386938345681)"><path class="outline" fill="#A5ABB6" stroke="none" d="M 17.814376783534897,-17.547021964260857 L 18.501731218904354,-16.82069980421207 A 49.245338458946 49.245338458946 0 0 1 19.414734075097385,-17.663145760713263 L 18.745919523598438,-18.406575041615802 A 50.245338458946 50.245338458946 0 0 0 17.814376783534897,-17.547021964260857 Z M 82.67267889160789,-21.11733745858369 L 82.06920110059944,-20.319957652117814 A 49.245338458946 49.245338458946 0 0 1 83.050244718805,-19.55782720119755 L 81.18004668689584,-17.212116366196128 L 88.83526967245986,-15.58498359924306 L 85.54384209468391,-22.685441647866114 L 83.67364406277474,-20.33973081286469 A 50.245338458946 50.245338458946 0 0 0 82.67267889160789,-21.11733745858369"/><text text-anchor="middle" pointer-events="none" font-size="8px" fill="#000000" x="50.24321620038083" y="-27.753393958442892" font-family="sans-serif">DIRECT_FLIGHT</text></g><g class="relationship" transform="translate(-1.6584734850982918 148.20880032718378) rotate(401.4386938345681)"><path class="outline" fill="#A5ABB6" stroke="none" d="M 20.055679524053907,-14.933844743683553 L 20.636756339455843,-14.119996026413359 A 54.577941934472584 54.577941934472584 0 0 1 22.515057927906785,-15.402839019652227 L 21.96839614396034,-16.24019252562954 A 55.577941934472584 55.577941934472584 0 0 0 20.055679524053907,-14.933844743683553 Z M 79.34146145780119,-18.285840436669666 L 78.85582403603965,-17.41168009978358 A 54.577941934472584 54.577941934472584 0 0 1 80.82071983215826,-16.26586706404224 L 79.25580262606012,-13.706368258014392 L 87.0537032472396,-13.040976717484545 L 82.90727610695579,-19.678532138746036 L 81.34235890085765,-17.11903333271819 A 55.577941934472584 55.577941934472584 0 0 0 79.34146145780119,-18.285840436669666"/><text text-anchor="middle" pointer-events="none" font-size="8px" fill="#000000" x="50.38816529681963" y="-21.74477317019138" font-family="sans-serif">DIRECT_FLI…</text></g><g class="relationship" transform="translate(-1.6584734850982918 148.20880032718378) rotate(401.4386938345681)"><path class="outline" fill="#A5ABB6" stroke="none" d="M 21.916810198440235,-12.037584090071652 L 22.380594600123676,-11.151635994100372 A 64.62084175539769 64.62084175539769 0 0 1 24.057051430636154,-11.998435163272774 L 23.619210003153793,-12.897487377763241 A 65.62084175539769 65.62084175539769 0 0 0 21.916810198440235,-12.037584090071652 Z M 77.69577988901554,-14.429623857142687 L 77.30954517789193,-13.507223321625027 A 64.62084175539769 64.62084175539769 0 0 1 79.03125840322977,-12.75670356360411 L 77.79262433493848,-10.024344574585985 L 85.61320172232062,-10.321950569094113 L 80.68277049428484,-16.399848882294947 L 79.44413642599355,-13.667489893276821 A 65.62084175539769 65.62084175539769 0 0 0 77.69577988901554,-14.429623857142687"/><text text-anchor="middle" pointer-events="none" font-size="8px" fill="#000000" x="50.506422359538625" y="-15.995644105747559" font-family="sans-serif">ECONOMY…</text></g><g class="relationship" transform="translate(-1.6584734850982918 148.20880032718378) rotate(401.4386938345681)"><path class="outline" fill="#A5ABB6" stroke="none" d="M 23.36248952867312,-8.913141030110477 L 23.700190098026855,-7.971887437576477 A 84.84007885071983 84.84007885071983 0 0 1 26.18662836986002,-8.82074431980243 L 25.87823515506695,-9.772003288259285 A 85.84007885071983 85.84007885071983 0 0 0 23.36248952867312,-8.913141030110477 Z M 75.44445255085967,-10.7911222973338 L 75.17542065072489,-9.827991030729976 A 84.84007885071983 84.84007885071983 0 0 1 77.69464908525161,-9.08205445111272 L 76.79847183982798,-6.219037450676831 L 84.52438496050596,-7.468143711863567 L 78.88955207914978,-12.899410451693905 L 77.99337483372615,-10.036393451258016 A 85.84007885071983 85.84007885071983 0 0 0 75.44445255085967,-10.7911222973338"/><text text-anchor="middle" pointer-events="none" font-size="8px" fill="#000000" x="50.59644707525135" y="-10.437904460173087" font-family="sans-serif">ECONOM…</text></g><g class="relationship" transform="translate(-1.6584734850982918 148.20880032718378) rotate(401.4386938345681)"><path class="outline" fill="#A5ABB6" stroke="none" d="M 24.365313462086043,-5.619741977554534 L 24.57052880428168,-4.6410251322271785 A 135.37099092311627 135.37099092311627 0 0 1 25.926040634779326,-4.9180223533405325 L 25.730838603568966,-5.898785406789912 A 136.37099092311627 136.37099092311627 0 0 0 24.365313462086043,-5.619741977554534 Z M 75.62827306991377,-6.520807636178219 L 75.45758031566734,-5.53548333238389 A 135.37099092311627 135.37099092311627 0 0 1 76.81957594498738,-5.292362603451219 L 76.27731405974447,-2.3417775686127347 L 83.79465134048432,-4.518849043690858 L 77.54259179197791,-9.226475983235863 L 77.000329906735,-6.275890948397379 A 136.37099092311627 136.37099092311627 0 0 0 75.62827306991377,-6.520807636178219"/><text text-anchor="middle" pointer-events="none" font-size="8px" fill="#000000" x="50.65709463973804" y="-5.011590818468633" font-family="sans-serif">ECONOM…</text></g><g class="relationship" transform="translate(-1.6584734850982918 148.20880032718378) rotate(401.4386938345681)"><path class="outline" fill="#A5ABB6" stroke="none" d="M 24.906272637950263,-2.219816047353928 L 24.97511272569896,-1.2221883400809435 A 397.6697473740525 397.6697473740525 0 0 1 25.74098206243302,-1.274293556520604 L 25.674067867568535,-2.2720522901458935 A 398.6697473740525 398.6697473740525 0 0 0 24.906272637950263,-2.219816047353928 Z M 75.70353192451122,-2.4810235278499135 L 75.64495512241274,-1.4827406229297253 A 397.6697473740525 397.6697473740525 0 0 1 76.41123301089786,-1.4370351292941128 L 76.22972184385651,1.5574687855871636 L 83.42866067346105,-1.5125930586778584 L 76.65324790028632,-5.429707015802482 L 76.47173673324497,-2.435203100921205 A 398.6697473740525 398.6697473740525 0 0 0 75.70353192451122,-2.4810235278499135"/><text text-anchor="middle" pointer-events="none" font-size="8px" fill="#000000" x="50.68760709695823" y="0.3378960033523981" font-family="sans-serif">ECONOM…</text></g><g class="relationship" transform="translate(-1.6584734850982918 148.20880032718378) rotate(401.4386938345681)"><path class="outline" fill="#A5ABB6" stroke="none" d="M 24.906272637950263,2.219816047353928 L 24.97511272569896,1.2221883400809435 A 397.6697473740525 397.6697473740525 0 0 0 26.178915769287528,1.3034206155296602 L 26.11310282416544,2.301252593497054 A 398.6697473740525 398.6697473740525 0 0 1 24.906272637950263,2.219816047353928 Z M 75.26426835441524,2.5065552104461517 L 75.20679337549996,1.5082082633387017 A 397.6697473740525 397.6697473740525 0 0 0 76.41123301089786,1.4370351292941128 L 76.22972184385651,-1.5574687855871636 L 83.42866067346105,1.5125930586778584 L 76.65324790028632,5.429707015802482 L 76.47173673324497,2.435203100921205 A 398.6697473740525 398.6697473740525 0 0 1 75.26426835441524,2.5065552104461517"/><text text-anchor="middle" pointer-events="none" font-size="8px" fill="#000000" x="50.68760709695833" y="5.662103996647602" font-family="sans-serif">BUSINES…</text></g><g class="relationship" transform="translate(-1.6584734850982918 148.20880032718378) rotate(283.238142956656)"><path class="outline" fill="#A5ABB6" stroke="none" d="M 24.018736134675446,6.953439040707552 L 24.277555179777966,5.987513214418485 A 107.1828087698993 107.1828087698993 0 0 0 26.134643860007078,6.467350831469773 L 25.893151181898872,7.437753472861544 A 108.1828087698993 108.1828087698993 0 0 1 24.018736134675446,6.953439040707552 Z M 74.80944574504242,8.211743464363096 L 74.5987751347377,7.234186359149362 A 107.1828087698993 107.1828087698993 0 0 0 76.47011506375739,6.81334271237646 L 75.78572524563158,3.8924506265838783 L 83.39959490029437,5.703248484381685 L 77.38263482125846,10.707865493433234 L 76.69824500313266,7.7869734076406525 A 108.1828087698993 108.1828087698993 0 0 1 74.80944574504242,8.211743464363096"/><text text-anchor="middle" pointer-events="none" font-size="8px" fill="#000000" x="50.31488315889178" y="13.126201697911469" font-family="sans-serif">BUSINES…</text></g><g class="relationship" transform="translate(-1.6584734850982918 148.20880032718378) rotate(401.4386938345681)"><path class="outline" fill="#A5ABB6" stroke="none" d="M 24.365313462086043,5.619741977554534 L 24.57052880428168,4.6410251322271785 A 135.37099092311627 135.37099092311627 0 0 0 26.3555914274479,5.00279423800616 L 26.16356253392191,5.984183510441497 A 136.37099092311627 136.37099092311627 0 0 1 24.365313462086043,5.619741977554534 Z M 75.19355479313693,6.595392191171143 L 75.02604980099322,5.609520963471013 A 135.37099092311627 135.37099092311627 0 0 0 76.81957594498738,5.292362603451219 L 76.27731405974447,2.3417775686127347 L 83.79465134048432,4.518849043690858 L 77.54259179197791,9.226475983235863 L 77.000329906735,6.275890948397379 A 136.37099092311627 136.37099092311627 0 0 1 75.19355479313693,6.595392191171143"/><text text-anchor="middle" pointer-events="none" font-size="8px" fill="#000000" x="50.65709463973807" y="11.011590818468633" font-family="sans-serif">BUSINES…</text></g><g class="relationship" transform="translate(-1.6584734850982918 148.20880032718378) rotate(401.4386938345681)"><path class="outline" fill="#A5ABB6" stroke="none" d="M 23.36248952867312,8.913141030110477 L 23.700190098026855,7.971887437576477 A 84.84007885071983 84.84007885071983 0 0 0 24.088312923883773,8.110074401535428 L 23.755187112487764,9.05295678751034 A 85.84007885071983 85.84007885071983 0 0 1 23.36248952867312,8.913141030110477 Z M 77.59526212488045,10.159949549475357 L 77.30117421824129,9.204171173925559 A 84.84007885071983 84.84007885071983 0 0 0 77.69464908525161,9.08205445111272 L 76.79847183982798,6.219037450676831 L 84.52438496050596,7.468143711863567 L 78.88955207914978,12.899410451693905 L 77.99337483372615,10.036393451258016 A 85.84007885071983 85.84007885071983 0 0 1 77.59526212488045,10.159949549475357"/><text text-anchor="middle" pointer-events="none" font-size="8px" fill="#000000" x="50.596447075251355" y="16.437904460173087" font-family="sans-serif">BUSINESS…</text></g><g class="relationship" transform="translate(-1.6584734850982918 148.20880032718378) rotate(401.4386938345681)"><path class="outline" fill="#A5ABB6" stroke="none" d="M 21.916810198440235,12.037584090071652 L 22.380594600123676,11.151635994100372 A 64.62084175539769 64.62084175539769 0 0 0 22.475255342360658,11.201090267651502 L 22.012935804638527,12.087803662746218 A 65.62084175539769 65.62084175539769 0 0 1 21.916810198440235,12.037584090071652 Z M 79.34532159241608,13.712186272455256 L 78.93394941491329,12.80071881194084 A 64.62084175539769 64.62084175539769 0 0 0 79.03125840322977,12.75670356360411 L 77.79262433493848,10.024344574585985 L 85.61320172232062,10.321950569094113 L 80.68277049428484,16.399848882294947 L 79.44413642599355,13.667489893276821 A 65.62084175539769 65.62084175539769 0 0 1 79.34532159241608,13.712186272455256"/><text text-anchor="middle" pointer-events="none" font-size="8px" fill="#000000" x="50.50642235953863" y="21.99564410574756" font-family="sans-serif">BUSINESS_…</text></g><g class="relationship" transform="translate(-1.6584734850982918 148.20880032718378) rotate(401.4386938345681)"><path class="outline" fill="#A5ABB6" stroke="none" d="M 20.055679524053907,14.933844743683553 L 20.636756339455843,14.119996026413359 A 54.577941934472584 54.577941934472584 0 0 0 22.88064082813122,15.639433217965944 L 22.34067740779591,16.481121702323307 A 55.577941934472584 55.577941934472584 0 0 1 20.055679524053907,14.933844743683553 Z M 78.95296660911403,18.499643991665543 L 78.47431927793815,17.621636740922014 A 54.577941934472584 54.577941934472584 0 0 0 80.82071983215826,16.26586706404224 L 79.25580262606012,13.706368258014392 L 87.0537032472396,13.040976717484545 L 82.90727610695579,19.678532138746036 L 81.34235890085765,17.11903333271819 A 55.577941934472584 55.577941934472584 0 0 1 78.95296660911403,18.499643991665543"/><text text-anchor="middle" pointer-events="none" font-size="8px" fill="#000000" x="50.38816529681963" y="27.74477317019138" font-family="sans-serif">BUSINESS_…</text></g><g class="relationship" transform="translate(-1.6584734850982918 148.20880032718378) rotate(283.238142956656)"><path class="outline" fill="#A5ABB6" stroke="none" d="M 17.324116139070416,18.03122292025696 L 18.031222920256962,17.324116139070412 A 48.06527865525585 48.06527865525585 0 0 0 19.542973296187782,18.771429121210687 L 18.867318540626087,19.508647305527155 A 49.06527865525585 49.06527865525585 0 0 1 17.324116139070416,18.03122292025696 Z M 81.87055789002248,22.275972008253987 L 81.2621429108116,21.482352947827742 A 48.06527865525585 48.06527865525585 0 0 0 82.8949687214309,20.173160853605438 L 80.9678107694789,17.874017050310783 L 88.58083058777709,16.059649599599908 L 85.46451265736688,23.238685924664978 L 83.53735470541488,20.939542121370323 A 49.06527865525585 49.06527865525585 0 0 1 81.87055789002248,22.275972008253987"/><text text-anchor="middle" pointer-events="none" font-size="8px" fill="#000000" x="49.88740365427693" y="34.85533006963022" font-family="sans-serif">FIRST_CLASS…</text></g><g class="relationship" transform="translate(-1.6584734850982918 148.20880032718378) rotate(401.4386938345681)"><path class="outline" fill="#A5ABB6" stroke="none" d="M 17.814376783534897,17.547021964260857 L 18.501731218904354,16.82069980421207 A 49.245338458946 49.245338458946 0 0 0 19.739433604517565,17.952671908609076 L 19.077212560944062,18.701980449497555 A 50.245338458946 50.245338458946 0 0 1 17.814376783534897,17.547021964260857 Z M 82.3175672352565,21.383636431775194 L 81.72115699851761,20.580956651593162 A 49.245338458946 49.245338458946 0 0 0 83.050244718805,19.55782720119755 L 81.18004668689584,17.212116366196128 L 88.83526967245986,15.58498359924306 L 85.54384209468391,22.685441647866114 L 83.67364406277474,20.33973081286469 A 50.245338458946 50.245338458946 0 0 1 82.3175672352565,21.383636431775194"/><text text-anchor="middle" pointer-events="none" font-size="8px" fill="#000000" x="50.243216200380836" y="33.75339395844289" font-family="sans-serif">FIRST_CLASS…</text></g><g class="relationship" transform="translate(-1.6584734850982918 148.20880032718378) rotate(401.4386938345681)"><path class="outline" fill="#A5ABB6" stroke="none" d="M 15.235387732235946,19.82758080675589 L 16.015990413247987,19.20255324384621 A 46.5470379496718 46.5470379496718 0 0 0 16.546789840285136,19.853352355684258 L 15.777590665283746,20.49236145513213 A 47.5470379496718 47.5470379496718 0 0 1 15.235387732235946,19.82758080675589 Z M 85.81470469714118,23.88633734445861 L 85.11089699196654,23.17594680810779 A 46.5470379496718 46.5470379496718 0 0 0 85.70213651862886,22.579521340992052 L 83.552607464293,20.486789909449534 L 90.94343136795072,17.91274211946547 L 88.56817525774335,25.369829916382074 L 86.41864620340749,23.277098484839556 A 47.5470379496718 47.5470379496718 0 0 1 85.81470469714118,23.88633734445861"/><text text-anchor="middle" pointer-events="none" font-size="8px" fill="#000000" x="50.07352105670837" y="40.101265380698855" font-family="sans-serif">FIRST_CLASS_D…</text></g><g class="relationship" transform="translate(-1.6584734850982918 148.20880032718378) rotate(401.4386938345681)"><path class="outline" fill="#A5ABB6" stroke="none" d="M 12.367599250055083,21.732291383791928 L 13.226653204424967,21.22040633470233 A 45.543216030247585 45.543216030247585 0 0 0 14.331168348340142,22.98135048367605 L 13.496366417436967,23.531900877518733 A 46.543216030247585 46.543216030247585 0 0 1 12.367599250055083,21.732291383791928 Z M 88.23708772246444,27.54601197656019 L 87.46605473950058,26.909216766793467 A 45.543216030247585 45.543216030247585 0 0 0 88.7528229089634,25.27670162842573 L 86.35496260931816,23.473852221685036 L 93.35911490796589,19.9821691637103 L 91.94996997515705,27.68050083741332 L 89.55210967551182,25.877651430672625 A 46.543216030247585 46.543216030247585 0 0 1 88.23708772246444,27.54601197656019"/><text text-anchor="middle" pointer-events="none" font-size="8px" fill="#000000" x="49.88144185816827" y="46.884469444200306" font-family="sans-serif">FIRST_CLASS_DIR…</text></g><g class="relationship" transform="translate(-1.6584734850982918 148.20880032718378) rotate(401.4386938345681)"><path class="outline" fill="#A5ABB6" stroke="none" d="M 9.265372650015623,23.225048324090576 L 10.18659379640068,22.83600899516225 A 45.76983431067085 45.76983431067085 0 0 0 12.11457035267874,26.845539157141907 L 11.235472508361845,27.322180510905287 A 46.76983431067085 46.76983431067085 0 0 1 9.265372650015623,23.225048324090576 Z M 90.61092520716105,31.92909458888806 L 89.7928724442822,31.353951409196004 A 45.76983431067085 45.76983431067085 0 0 0 92.17176344495994,27.594389821952554 L 89.56167990316231,26.11538207862016 L 96.05779543636845,21.750696181646827 L 95.65187483402343,29.56640014639574 L 93.04179129222581,28.087392403063348 A 46.76983431067085 46.76983431067085 0 0 1 90.61092520716105,31.92909458888806"/><text text-anchor="middle" pointer-events="none" font-size="8px" fill="#000000" x="49.66976526984351" y="54.221842034011935" font-family="sans-serif">FIRST_CLASS_DIRECT</text></g><g class="relationship" transform="translate(-1.6584734850982918 148.20880032718378) rotate(401.4386938345681)"><path class="outline" fill="#A5ABB6" stroke="none" d="M 5.987513214418485,24.277555179777966 L 6.953439040707552,24.018736134675446 A 46.99873712211693 46.99873712211693 0 0 0 11.55984710884831,35.199479883684276 L 10.6919325983989,35.696193485824736 A 47.99873712211693 47.99873712211693 0 0 1 5.987513214418485,24.277555179777966 Z M 90.782176458185,40.61048763336427 L 89.98150032100921,40.01139020943623 A 46.99873712211693 46.99873712211693 0 0 0 95.92029468413385,29.477694391550134 L 93.13918410614134,28.352783749330843 L 99.00860461231093,23.175921483270844 L 99.62844212145718,30.97757524784252 L 96.84733154346468,29.85266460562323 A 47.99873712211693 47.99873712211693 0 0 1 90.782176458185,40.61048763336427"/><text text-anchor="middle" pointer-events="none" font-size="8px" fill="#000000" x="49.441707221970844" y="62.2641407135327" font-family="sans-serif">FIRST_CLASS_DIRECT</text></g></g><g class="layer nodes"><g class="node" transform="translate(208.481242552351,44.85954170273453)"><circle class="outline" cx="0" cy="0" r="25" fill="#ECB5C9" stroke="#da7298" stroke-width="2px"/><text text-anchor="middle" pointer-events="none" font-family="sans-serif" dy="1.5625" font-size="25" fill="#2A2C34"/><text text-anchor="middle" pointer-events="none" x="0" y="5" font-size="10px" fill="#2A2C34" font-family="sans-serif"> LAX</text></g><g class="node" transform="translate(79.59228646070972,219.93855943896878)"><circle class="outline" cx="0" cy="0" r="25" fill="#ECB5C9" stroke="#da7298" stroke-width="2px"/><text text-anchor="middle" pointer-events="none" font-family="sans-serif" dy="1.5625" font-size="25" fill="#2A2C34"/><text text-anchor="middle" pointer-events="none" x="0" y="5" font-size="10px" fill="#2A2C34" font-family="sans-serif"> DAY</text></g><g class="node" transform="translate(115.82776759773769,-11.404135630678608)"><circle class="outline" cx="0" cy="0" r="25" fill="#ECB5C9" stroke="#da7298" stroke-width="2px"/><text text-anchor="middle" pointer-events="none" font-family="sans-serif" dy="1.5625" font-size="25" fill="#2A2C34"/><text text-anchor="middle" pointer-events="none" x="0" y="5" font-size="10px" fill="#2A2C34" font-family="sans-serif"> LAS</text></g><g class="node" transform="translate(23.013956413070538,43.331458314931986)"><circle class="outline" cx="0" cy="0" r="25" fill="#ECB5C9" stroke="#da7298" stroke-width="2px"/><text text-anchor="middle" pointer-events="none" font-family="sans-serif" dy="1.5625" font-size="25" fill="#2A2C34"/><text text-anchor="middle" pointer-events="none" x="0" y="5" font-size="10px" fill="#2A2C34" font-family="sans-serif"> DEN</text></g><g class="node" transform="translate(-1.6584734850982918,148.20880032718378)"><circle class="outline" cx="0" cy="0" r="25" fill="#ECB5C9" stroke="#da7298" stroke-width="2px"/><text text-anchor="middle" pointer-events="none" font-family="sans-serif" dy="1.5625" font-size="25" fill="#2A2C34"/><text text-anchor="middle" pointer-events="none" x="0" y="5" font-size="10px" fill="#2A2C34" font-family="sans-serif"> MSP</text></g></g></svg>